HIERARCHY
ROOT Hips
{
	OFFSET 0.00000 0.00000 0.00000
	CHANNELS 6 Xposition Yposition Zposition Zrotation Yrotation Xrotation 
	JOINT LHipJoint
	{
		OFFSET 0 0 0
		CHANNELS 3 Zrotation Yrotation Xrotation
		JOINT LeftUpLeg
		{
			OFFSET 1.80322 -1.53100 0.99595
			CHANNELS 3 Zrotation Yrotation Xrotation
			JOINT LeftLeg
			{
				OFFSET 2.25177 -6.18669 0.00000
				CHANNELS 3 Zrotation Yrotation Xrotation
				JOINT LeftFoot
				{
					OFFSET 2.26601 -6.22582 0.00000
					CHANNELS 3 Zrotation Yrotation Xrotation
					JOINT LeftToeBase
					{
						OFFSET 0.23701 -0.65119 2.15848
						CHANNELS 3 Zrotation Yrotation Xrotation
						End Site
						{
							OFFSET 0.00000 -0.00000 1.12949
						}
					}
				}
			}
		}
	}
	JOINT RHipJoint
	{
		OFFSET 0 0 0
		CHANNELS 3 Zrotation Yrotation Xrotation
		JOINT RightUpLeg
		{
			OFFSET -1.93977 -1.53100 0.99595
			CHANNELS 3 Zrotation Yrotation Xrotation
			JOINT RightLeg
			{
				OFFSET -2.28036 -6.26523 0.00000
				CHANNELS 3 Zrotation Yrotation Xrotation
				JOINT RightFoot
				{
					OFFSET -2.25490 -6.19528 0.00000
					CHANNELS 3 Zrotation Yrotation Xrotation
					JOINT RightToeBase
					{
						OFFSET -0.28375 -0.77960 2.23137
						CHANNELS 3 Zrotation Yrotation Xrotation
						End Site
						{
							OFFSET -0.00000 -0.00000 1.17899
						}
					}
				}
			}
		}
	}
	JOINT LowerBack
	{
		OFFSET 0 0 0
		CHANNELS 3 Zrotation Yrotation Xrotation
		JOINT Spine
		{
			OFFSET -0.00088 2.12090 -0.02806
			CHANNELS 3 Zrotation Yrotation Xrotation
			JOINT Spine1
			{
				OFFSET -0.00286 2.09666 0.12974
				CHANNELS 3 Zrotation Yrotation Xrotation
				JOINT Neck
				{
					OFFSET 0 0 0
					CHANNELS 3 Zrotation Yrotation Xrotation
					JOINT Neck1
					{
						OFFSET 0.07328 1.83526 0.07290
						CHANNELS 3 Zrotation Yrotation Xrotation
						JOINT Head
						{
							OFFSET -0.06683 1.74974 -0.49542
							CHANNELS 3 Zrotation Yrotation Xrotation
							End Site
							{
								OFFSET -0.03398 1.85163 -0.17573
							}
						}
					}
				}
				JOINT LeftShoulder
				{
					OFFSET 0 0 0
					CHANNELS 3 Zrotation Yrotation Xrotation
					JOINT LeftArm
					{
						OFFSET 3.02113 1.18018 0.40602
						CHANNELS 3 Zrotation Yrotation Xrotation
						JOINT LeftForeArm
						{
							OFFSET 4.58538 -0.00000 -0.00000
							CHANNELS 3 Zrotation Yrotation Xrotation
							JOINT LeftHand
							{
								OFFSET 2.68935 -0.00000 -0.00000
								CHANNELS 3 Zrotation Yrotation Xrotation
								JOINT LeftFingerBase
								{
									OFFSET 0 0 0
									CHANNELS 3 Zrotation Yrotation Xrotation
									JOINT LeftHandIndex1
									{
										OFFSET 0.58506 -0.00000 -0.00000
										CHANNELS 3 Zrotation Yrotation Xrotation
										End Site
										{
											OFFSET 0.47169 -0.00000 -0.00000
										}
									}
								}
								JOINT LThumb
								{
									OFFSET 0 0 0
									CHANNELS 3 Zrotation Yrotation Xrotation
									End Site
									{
										OFFSET 0.47889 -0.00000 0.47889
									}
								}
							}
						}
					}
				}
				JOINT RightShoulder
				{
					OFFSET 0 0 0
					CHANNELS 3 Zrotation Yrotation Xrotation
					JOINT RightArm
					{
						OFFSET -2.95074 1.18843 0.31430
						CHANNELS 3 Zrotation Yrotation Xrotation
						JOINT RightForeArm
						{
							OFFSET -4.47450 -0.00000 -0.00000
							CHANNELS 3 Zrotation Yrotation Xrotation
							JOINT RightHand
							{
								OFFSET -2.93896 -0.00000 -0.00000
								CHANNELS 3 Zrotation Yrotation Xrotation
								JOINT RightFingerBase
								{
									OFFSET 0 0 0
									CHANNELS 3 Zrotation Yrotation Xrotation
									JOINT RightHandIndex1
									{
										OFFSET -0.40509 -0.00000 -0.00000
										CHANNELS 3 Zrotation Yrotation Xrotation
										End Site
										{
											OFFSET -0.32660 -0.00000 -0.00000
										}
									}
								}
								JOINT RThumb
								{
									OFFSET 0 0 0
									CHANNELS 3 Zrotation Yrotation Xrotation
									End Site
									{
										OFFSET -0.33158 -0.00000 0.33158
									}
								}
							}
						}
					}
				}
			}
		}
	}
}
MOTION
Frames: 7
Frame Time: .0083333
-1.1473 15.8920 3.0941 0.2573 11.1138 19.3945 0.0000 0.0000 0.0000 -7.6617 -13.9819 -26.2372 0.8843 5.9944 16.7683 -0.1059 13.2053 -17.4231 0.2109 -2.9570 -8.1591 0.0000 0.0000 0.0000 15.3808 0.4051 -29.9298 -2.4152 -9.6821 27.9532 -0.2111 -12.8506 -20.6875 -0.1274 2.3007 -6.3373 1.3070 0.0154 4.5197 -0.7786 0.0775 -4.2993 -1.5561 -0.0480 -7.0218 14.3491 7.9056 -10.8479 -11.0083 10.8720 22.5897 -4.8998 5.1574 10.4151 0.0000 -0.0000 0.0000 -84.7737 14.6672 45.8232 25.6219 -36.8329 -8.6600 -0.0000 -0.0000 7.6189 5.3943 17.8398 1.6570 -7.1250 0.0000 -0.0000 -21.3417 46.7122 -0.9438 0.0000 -0.0000 0.0000 79.3698 -7.4829 55.5674 -60.1290 56.3442 -34.4484 0.0000 -0.0000 -13.9400 -27.8847 -1.6847 0.8912 7.1250 -0.0000 -0.0000 -1.0508 -31.8845 -0.3373
-1.1525 15.8648 3.0691 0.2976 12.0359 19.5725 0.0000 0.0000 0.0000 -7.5623 -14.0106 -27.6074 1.0186 6.4207 18.0102 -0.0522 12.5402 -17.1479 0.2228 -3.0385 -8.3859 0.0000 0.0000 0.0000 15.5099 -0.2282 -30.8568 -2.5960 -10.0105 29.0106 -0.2539 -12.7357 -20.9941 -0.1160 2.1956 -6.0466 1.4135 0.0943 4.6971 -0.7687 0.1948 -4.2798 -1.6189 0.0043 -7.0996 13.9049 7.5639 -11.0835 -10.7187 10.3480 22.3192 -4.7877 4.9007 10.2397 0.0000 0.0000 0.0000 -84.7564 14.6011 46.2052 25.7980 -37.0086 -8.7658 -0.0000 -0.0000 7.4946 5.7898 17.7166 1.7673 -7.1250 0.0000 -0.0000 -20.9374 46.6482 -0.8898 0.0000 0.0000 0.0000 79.1887 -5.8812 55.6957 -60.5154 56.4457 -34.7702 0.0000 -0.0000 -13.2165 -28.3784 -1.8789 1.0147 7.1250 -0.0000 -0.0000 -1.4487 -32.1129 -0.4571
-1.1578 15.8350 3.0453 0.3615 12.9695 19.7314 0.0000 0.0000 0.0000 -7.4857 -14.0688 -28.9161 1.1561 6.8265 19.2023 -0.0011 11.8327 -16.8216 0.2400 -3.1528 -8.7045 0.0000 0.0000 0.0000 15.6208 -0.8881 -31.7741 -2.7906 -10.3480 30.1113 -0.3060 -12.6090 -21.3739 -0.1073 2.1117 -5.8146 1.5005 0.1777 4.8936 -0.7589 0.3172 -4.2480 -1.6721 0.0600 -7.1748 13.4452 7.2098 -11.3345 -10.4255 9.8113 22.0453 -4.6725 4.6369 10.0689 -0.0000 0.0000 0.0000 -84.7334 14.5344 46.6054 25.9939 -37.2027 -8.8840 -0.0000 -0.0000 7.3092 6.2190 17.5545 1.8825 -7.1250 0.0000 -0.0000 -20.4875 46.5514 -0.8181 -0.0000 0.0000 0.0000 79.0012 -4.2148 55.7142 -60.7723 56.5122 -34.9844 0.0000 -0.0000 -12.4353 -28.7856 -2.1614 1.1871 7.1250 -0.0000 -0.0000 -1.7787 -32.4422 -0.5471
-1.1629 15.8029 3.0227 0.4562 13.9073 19.8645 0.0000 0.0000 0.0000 -7.4454 -14.1514 -30.1522 1.2961 7.2131 20.3482 0.0468 11.0922 -16.4558 0.2615 -3.2900 -9.0872 0.0000 0.0000 0.0000 15.7038 -1.5826 -32.6702 -2.9987 -10.6929 31.2511 -0.3681 -12.4628 -21.8212 -0.1010 2.0493 -5.6419 1.5633 0.2671 5.1203 -0.7542 0.4460 -4.2015 -1.7185 0.1199 -7.2514 12.9786 6.8428 -11.5990 -10.1320 9.2608 21.7683 -4.5569 4.3657 9.9033 -0.0000 -0.0000 0.0000 -84.6978 14.4685 47.0279 26.2191 -37.4243 -9.0205 -0.0000 -0.0000 7.0554 6.6867 17.3518 2.0025 -7.1250 0.0000 -0.0000 -19.9882 46.4205 -0.7294 -0.0000 -0.0000 0.0000 78.8089 -2.4923 55.6159 -60.9245 56.5513 -35.1114 0.0000 -0.0000 -11.6876 -29.0598 -2.5315 1.4060 7.1250 -0.0000 -0.0000 -2.0031 -32.8707 -0.5955
-1.1678 15.7688 3.0017 0.5916 14.8362 19.9773 0.0000 0.0000 0.0000 -7.4584 -14.2471 -31.3135 1.4381 7.5818 21.4508 0.0919 10.3197 -16.0608 0.2849 -3.4330 -9.4866 0.0000 0.0000 0.0000 15.7474 -2.3188 -33.5497 -3.2213 -11.0450 32.4317 -0.4422 -12.2788 -22.3279 -0.0972 2.0101 -5.5336 1.5895 0.3650 5.3710 -0.7583 0.5830 -4.1421 -1.7555 0.1854 -7.3276 12.5006 6.4609 -11.8639 -9.8315 8.6948 21.4846 -4.4385 4.0873 9.7384 -0.0000 -0.0000 0.0000 -84.6501 14.4087 47.4733 26.4740 -37.6729 -9.1758 -0.0000 -0.0000 6.7302 7.2120 17.1043 2.1314 -7.1250 0.0000 -0.0000 -19.4213 46.2533 -0.6240 -0.0000 -0.0000 0.0000 78.6108 -0.7262 55.4099 -60.9708 56.5631 -35.1500 0.0000 -0.0000 -11.0224 -29.2216 -2.9706 1.6605 7.1250 -0.0000 -0.0000 -2.1372 -33.3771 -0.6093
-1.1728 15.7326 2.9817 0.7573 15.7269 20.0913 0.0000 0.0000 0.0000 -7.5115 -14.3395 -32.4348 1.5828 7.9369 22.5225 0.1318 9.5307 -15.6289 0.3081 -3.5686 -9.8661 0.0000 0.0000 0.0000 15.7555 -3.0628 -34.4388 -3.4593 -11.4038 33.6541 -0.5231 -12.0642 -22.8506 -0.0984 2.0231 -5.5694 1.5741 0.4815 5.6242 -0.7698 0.7407 -4.0748 -1.7801 0.2631 -7.3961 12.0131 6.0661 -12.1235 -9.5263 8.1165 21.1894 -4.3177 3.8030 9.5726 0.0000 0.0000 0.0000 -84.5926 14.3526 47.9416 26.7639 -37.9531 -9.3535 -0.0000 -0.0000 6.3290 7.7944 16.8424 2.2712 -7.1250 0.0000 -0.0000 -18.8002 46.0779 -0.5183 0.0000 0.0000 0.0000 78.3990 1.0816 55.1240 -60.8722 56.5379 -35.0678 0.0000 -0.0000 -10.4586 -29.3548 -3.3617 1.8890 7.1250 -0.0000 -0.0000 -2.2477 -33.8289 -0.6162
-1.1776 15.6947 2.9631 0.9550 16.5732 20.2146 0.0000 0.0000 0.0000 -7.6097 -14.4229 -33.5290 1.7316 8.2830 23.5771 0.1664 8.7186 -15.1530 0.3313 -3.6992 -10.2318 0.0000 0.0000 0.0000 15.7239 -3.8147 -35.3484 -3.7134 -11.7690 34.9196 -0.6112 -11.8110 -23.3829 -0.1020 2.0596 -5.6705 1.5205 0.6192 5.8736 -0.7933 0.9223 -4.0029 -1.7996 0.3542 -7.4567 11.5189 5.6568 -12.3805 -9.2144 7.5229 20.8862 -4.1948 3.5119 9.4073 -0.0000 0.0000 0.0000 -84.5206 14.2988 48.4386 27.0851 -38.2602 -9.5517 -0.0000 -0.0000 5.8505 8.4543 16.5646 2.4265 -7.1250 0.0000 -0.0000 -18.1063 45.8950 -0.4135 -0.0000 0.0000 0.0000 78.1794 2.9174 54.7620 -60.6374 56.4774 -34.8720 0.0000 -0.0000 -10.0592 -29.4879 -3.6904 2.0845 7.1250 -0.0000 -0.0000 -2.3579 -34.2102 -0.6247
